<svg id="Layer_1" data-name="Layer 1" xmlns="http://www.w3.org/2000/svg" viewBox="0 0 383.99 384.12"><title>clock-icon</title><path d="M355.5,597h-24c-4.68-.58-9.38-1.08-14-1.75-38.07-5.47-71.74-20.66-100.55-46.17-33.5-29.66-54.41-66.55-62.41-110.63-1.29-7.1-2-14.3-3-21.45q0-12,0-24c.23-1.34.51-2.67.69-4,.89-6.55,1.39-13.18,2.68-19.65,10.27-51.54,37-92.62,80.11-122.46,42.29-29.24,89.4-39.57,140-31.19,49.85,8.25,90.43,33,121.06,73.15,32.05,42,44.39,89.73,37.59,142.08-5,38.57-20.87,72.5-46.8,101.49-29.55,33-66.24,53.7-109.95,61.6C369.85,595.29,362.65,596,355.5,597Zm-11.93-24c92.52-.06,167.82-75.35,167.93-167.88S436,236.94,343.43,237,175.61,312.35,175.5,404.88,251,573.06,343.57,573Z" transform="translate(-151.5 -212.88)" style="fill:#1e73be"/><path d="M424,467.65,406.68,485c-.52-.48-1.26-1.14-2-1.83q-35.52-35.52-71-71.1a7.57,7.57,0,0,1-2.15-4.74q-.18-60-.09-120c0-.61.06-1.23.11-2.1H355.5v4.38q0,53.42-.06,106.84a7.91,7.91,0,0,0,2.6,6.18q31.5,31.32,62.88,62.76A22.17,22.17,0,0,0,424,467.65Z" transform="translate(-151.5 -212.88)" style="fill:#1e73be"/></svg>