<?xml version="1.0" encoding="utf-8"?>
<!-- Generator: Adobe Illustrator 16.0.0, SVG Export Plug-In . SVG Version: 6.00 Build 0)  -->
<!DOCTYPE svg PUBLIC "-//W3C//DTD SVG 1.1//EN" "http://www.w3.org/Graphics/SVG/1.1/DTD/svg11.dtd">
<svg version="1.1" id="Layer_1" xmlns="http://www.w3.org/2000/svg" xmlns:xlink="http://www.w3.org/1999/xlink" x="0px" y="0px"
	 width="879.84px" height="178.495px" viewBox="0 0 879.84 178.495" enable-background="new 0 0 879.84 178.495"
	 xml:space="preserve">
<rect fill="#065885" width="879.84" height="178.495"/>
<text transform="matrix(1 0 0 1 3.5703 128.9604)" display="none" fill="#454546" font-family="'CenturyGothic'" font-size="145">adventourist</text>
<path fill="#FFFFFF" d="M91.363,51.929v77.031h-9.771v-13.24c-4.154,5.051-8.814,8.85-13.983,11.399
	c-5.168,2.549-10.821,3.823-16.957,3.823c-10.903,0-20.213-3.953-27.931-11.859c-7.717-7.905-11.576-17.523-11.576-28.851
	c0-11.091,3.894-20.579,11.682-28.462c7.788-7.882,17.157-11.824,28.108-11.824c6.325,0,12.047,1.345,17.169,4.036
	c5.121,2.69,9.617,6.726,13.487,12.107v-14.16H91.363z M51.75,59.505c-5.516,0-10.608,1.356-15.275,4.066
	c-4.668,2.711-8.381,6.52-11.139,11.422S21.2,85.083,21.2,90.551c0,5.423,1.391,10.609,4.172,15.558
	c2.781,4.951,6.518,8.805,11.208,11.563c4.69,2.759,9.724,4.137,15.1,4.137c5.421,0,10.56-1.367,15.417-4.102
	c4.855-2.735,8.591-6.435,11.209-11.103c2.616-4.667,3.925-9.924,3.925-15.771c0-8.91-2.935-16.36-8.805-22.348
	C67.555,62.5,60.331,59.505,51.75,59.505z"/>
<g>
	<defs>
		<path id="SVGID_1_" d="M150.942,59.505c-5.516,0-10.608,1.356-15.275,4.066c-4.668,2.711-8.381,6.52-11.139,11.422
			s-4.136,10.089-4.136,15.558c0,5.423,1.391,10.609,4.172,15.558c2.781,4.951,6.518,8.805,11.208,11.563
			c4.69,2.759,9.724,4.137,15.1,4.137c5.421,0,10.56-1.367,15.417-4.102c4.855-2.735,8.59-6.435,11.207-11.103
			c2.617-4.667,3.926-9.924,3.926-15.771c0-8.91-2.936-16.36-8.805-22.348C166.748,62.5,159.522,59.505,150.942,59.505z"/>
	</defs>
	<clipPath id="SVGID_2_">
		<use xlink:href="#SVGID_1_"  overflow="visible"/>
	</clipPath>
	<g clip-path="url(#SVGID_2_)">
		<defs>
			<path id="SVGID_3_" d="M117.847,78.556c0,0,14.712-2.167,26.936,7.507c22.108,17.497,21.117,18.687,37.166-0.22v45.118h-64.102
				V78.556z"/>
		</defs>
		<use xlink:href="#SVGID_3_"  overflow="visible" fill-rule="evenodd" clip-rule="evenodd" fill="#6398CC"/>
		<clipPath id="SVGID_4_">
			<use xlink:href="#SVGID_3_"  overflow="visible"/>
		</clipPath>
		<path clip-path="url(#SVGID_4_)" fill-rule="evenodd" clip-rule="evenodd" fill="#347497" d="M117.847,79.555
			c20.86-2.901,39.083,22.15,39.083,22.15s13.354,17.353,25.018,7.274v21.98h-64.102C117.847,130.96,98.544,82.239,117.847,79.555z"
			/>
	</g>
</g>
<path fill="#FFFFFF" d="M180.785,22.193v43.896c-3.871-5.381-8.367-9.417-13.488-12.107c-5.122-2.69-10.844-4.036-17.169-4.036
	c-10.951,0-20.32,3.941-28.108,11.824c-7.788,7.883-11.682,17.371-11.682,28.462c0,11.328,3.859,20.946,11.576,28.851
	c7.718,7.907,17.028,11.859,27.931,11.859c6.135,0,11.789-1.274,16.956-3.823c5.17-2.549,9.83-6.348,13.984-11.399v13.24h9.77
	V22.193H180.785z M177.496,106.605c-2.617,4.667-6.352,8.368-11.207,11.103c-4.857,2.735-9.996,4.102-15.417,4.102
	c-5.375,0-10.409-1.378-15.1-4.137c-4.69-2.758-8.428-6.612-11.208-11.563c-2.781-4.949-4.172-10.135-4.172-15.558
	c0-5.468,1.378-10.655,4.136-15.558s6.471-8.711,11.139-11.422c4.667-2.71,9.759-4.066,15.275-4.066
	c8.581,0,15.806,2.995,21.675,8.982c5.869,5.988,8.805,13.438,8.805,22.348C181.422,96.681,180.113,101.938,177.496,106.605z"/>
<path fill="#FFFFFF" d="M205.706,51.929h10.55l25.856,56.152l25.545-56.152h10.62l-35.259,77.031h-1.841L205.706,51.929z"/>
<path fill="#FFFFFF" d="M358.211,103.401l8.354,4.39c-2.74,5.381-5.905,9.724-9.496,13.027c-3.591,3.304-7.63,5.818-12.118,7.541
	c-4.489,1.722-9.568,2.584-15.236,2.584c-12.567,0-22.394-4.118-29.479-12.354c-7.087-8.236-10.63-17.547-10.63-27.931
	c0-9.771,2.999-18.479,8.999-26.125c7.605-9.723,17.786-14.585,30.543-14.585c13.134,0,23.621,4.98,31.463,14.939
	c5.574,7.034,8.409,15.813,8.504,26.338h-69.313c0.188,8.947,3.047,16.282,8.576,22.003s12.358,8.583,20.487,8.583
	c3.922,0,7.737-0.682,11.447-2.045c3.709-1.363,6.863-3.174,9.463-5.431S355.187,108.433,358.211,103.401z M358.211,82.657
	c-1.323-5.286-3.249-9.511-5.778-12.673c-2.528-3.162-5.872-5.71-10.03-7.646c-4.159-1.935-8.53-2.903-13.113-2.903
	c-7.563,0-14.061,2.432-19.495,7.292c-3.97,3.54-6.972,8.85-9.003,15.93H358.211z"/>
<path fill="#FFFFFF" d="M387.594,51.929h9.912v13.806c3.965-5.286,8.354-9.24,13.169-11.859c4.814-2.62,10.054-3.93,15.718-3.93
	c5.758,0,10.868,1.463,15.329,4.39c4.461,2.927,7.752,6.868,9.877,11.824c2.123,4.956,3.186,12.673,3.186,23.152v39.648h-9.912
	V92.215c0-8.874-0.369-14.797-1.104-17.771c-1.148-5.098-3.351-8.932-6.608-11.505c-3.257-2.572-7.506-3.859-12.745-3.859
	c-5.996,0-11.367,1.982-16.111,5.947s-7.872,8.875-9.382,14.727c-0.944,3.823-1.416,10.809-1.416,20.957v28.25h-9.912V51.929z"/>
<path fill="#FFFFFF" d="M484.661,23.326h9.912v28.604h15.719v8.567h-15.719v68.464h-9.912V60.496h-13.521v-8.567h13.521V23.326z"/>
<g>
	<defs>
		<path id="SVGID_5_" d="M582.795,68.78c-5.945-6.089-13.014-9.133-21.209-9.133c-8.24,0-15.322,3.044-21.244,9.133
			c-5.92,6.089-8.881,13.452-8.881,22.09c0,5.57,1.35,10.762,4.051,15.576c2.699,4.814,6.346,8.531,10.941,11.151
			c4.594,2.619,9.639,3.929,15.133,3.929s10.539-1.31,15.135-3.929c4.594-2.62,8.242-6.337,10.941-11.151s4.051-10.006,4.051-15.576
			C591.713,82.232,588.741,74.869,582.795,68.78z"/>
	</defs>
	<clipPath id="SVGID_6_">
		<use xlink:href="#SVGID_5_"  overflow="visible"/>
	</clipPath>
	<g clip-path="url(#SVGID_6_)">
		<defs>
			<path id="SVGID_7_" d="M526.966,87.694c0,0,8.399,0.31,17.99-7.635c9.598-7.951,11.147-8.248,19.363,1.722
				c8.216,9.961,16.109,20.292,29.235,11.463v36.716h-66.589V87.694z"/>
		</defs>
		<use xlink:href="#SVGID_7_"  overflow="visible" fill-rule="evenodd" clip-rule="evenodd" fill="#4F873F"/>
		<clipPath id="SVGID_8_">
			<use xlink:href="#SVGID_7_"  overflow="visible"/>
		</clipPath>
		<path clip-path="url(#SVGID_8_)" fill-rule="evenodd" clip-rule="evenodd" fill="#59B449" d="M527.603,87.694
			c0,0,16.179-1.636,25.931,9.745c9.284,10.837,17.115,23.464,40.021,14.836v17.685h-66.589V87.694H527.603z"/>
	</g>
</g>
<path fill="#FFFFFF" d="M591.127,62.833c-7.803-8.59-17.637-12.886-29.504-12.886c-11.916,0-21.775,4.319-29.576,12.957
	c-7.094,7.835-10.639,17.087-10.639,27.754c0,10.762,3.746,20.167,11.24,28.214c7.494,8.048,17.152,12.071,28.975,12.071
	c11.771,0,21.406-4.023,28.9-12.071c7.494-8.047,11.242-17.453,11.242-28.214C601.766,79.943,598.219,70.668,591.127,62.833z
	 M587.663,106.446c-2.699,4.814-6.348,8.531-10.941,11.151c-4.596,2.619-9.641,3.929-15.135,3.929s-10.539-1.31-15.133-3.929
	c-4.596-2.62-8.242-6.337-10.941-11.151c-2.701-4.814-4.051-10.006-4.051-15.576c0-8.638,2.961-16.001,8.881-22.09
	c5.922-6.089,13.004-9.133,21.244-9.133c8.195,0,15.264,3.044,21.209,9.133s8.918,13.452,8.918,22.09
	C591.713,96.439,590.362,101.631,587.663,106.446z"/>
<path fill="#FFFFFF" d="M618.829,51.929h9.912v35.967c0,8.779,0.473,14.822,1.418,18.125c1.42,4.72,4.125,8.45,8.119,11.187
	c3.994,2.738,8.756,4.106,14.287,4.106s10.223-1.333,14.076-4c3.852-2.667,6.512-6.171,7.977-10.514
	c0.992-2.974,1.49-9.275,1.49-18.904V51.929h10.123v37.808c0,10.62-1.238,18.621-3.717,24.001s-6.207,9.593-11.186,12.638
	c-4.98,3.044-11.223,4.566-18.727,4.566c-7.506,0-13.771-1.522-18.799-4.566c-5.027-3.045-8.779-7.293-11.258-12.744
	c-2.477-5.452-3.717-13.653-3.717-24.604V51.929z"/>
<path fill="#FFFFFF" d="M704.499,51.929h10.123v11.257c3.021-4.436,6.207-7.752,9.559-9.948c3.352-2.194,6.844-3.292,10.479-3.292
	c2.736,0,5.664,0.874,8.779,2.62l-5.168,8.354c-2.078-0.896-3.824-1.345-5.24-1.345c-3.305,0-6.49,1.357-9.557,4.071
	c-3.07,2.714-5.406,6.927-7.01,12.638c-1.229,4.39-1.842,13.264-1.842,26.621v26.055h-10.123V51.929z"/>
<path fill="#FFFFFF" d="M755.297,20.21c2.256,0,4.182,0.803,5.779,2.407c1.598,1.605,2.398,3.54,2.398,5.806
	c0,2.219-0.801,4.131-2.398,5.735c-1.598,1.605-3.523,2.407-5.779,2.407c-2.209,0-4.113-0.802-5.711-2.407
	c-1.598-1.604-2.396-3.516-2.396-5.735c0-2.266,0.799-4.201,2.396-5.806C751.184,21.014,753.088,20.21,755.297,20.21z
	 M750.377,51.929h9.912v77.031h-9.912V51.929z"/>
<path fill="#FFFFFF" d="M819.622,60.354l-6.373,6.584c-5.301-5.144-10.482-7.717-15.545-7.717c-3.219,0-5.977,1.062-8.271,3.186
	s-3.441,4.602-3.441,7.434c0,2.502,0.945,4.885,2.838,7.151c1.891,2.313,5.865,5.027,11.92,8.142
	c7.379,3.823,12.391,7.505,15.041,11.045c2.602,3.587,3.902,7.623,3.902,12.107c0,6.326-2.223,11.682-6.666,16.072
	c-4.445,4.39-10,6.584-16.664,6.584c-4.443,0-8.688-0.968-12.729-2.903s-7.387-4.602-10.033-8l6.23-7.08
	c5.063,5.711,10.432,8.567,16.109,8.567c3.975,0,7.355-1.274,10.148-3.823c2.791-2.549,4.188-5.546,4.188-8.992
	c0-2.832-0.924-5.356-2.768-7.576c-1.846-2.17-6.008-4.909-12.488-8.213c-6.953-3.586-11.684-7.126-14.191-10.62
	c-2.506-3.493-3.76-7.48-3.76-11.965c0-5.852,1.998-10.714,5.992-14.585c3.996-3.87,9.043-5.806,15.143-5.806
	C805.295,49.947,812.434,53.416,819.622,60.354z"/>
<path fill="#FFFFFF" d="M845.817,23.326h9.912v28.604h15.717v8.567h-15.717v68.464h-9.912V60.496h-13.523v-8.567h13.523V23.326z"/>
</svg>
